<svg width="512" height="512" viewBox="0 0 512 512" fill="none" xmlns="http://www.w3.org/2000/svg">
  <rect width="512" height="512" rx="128" fill="#2563eb"/>
  <path d="M256 128C182.357 128 123 187.357 123 261C123 334.643 182.357 394 256 394C329.643 394 389 334.643 389 261C389 187.357 329.643 128 256 128ZM256 368C197.184 368 149 319.816 149 261C149 202.184 197.184 154 256 154C314.816 154 363 202.184 363 261C363 319.816 314.816 368 256 368Z" fill="white"/>
  <path d="M256 181C211.818 181 176 216.818 176 261C176 305.182 211.818 341 256 341C300.182 341 336 305.182 336 261C336 216.818 300.182 181 256 181ZM256 315C226.593 315 202 290.407 202 261C202 231.593 226.593 207 256 207C285.407 207 310 231.593 310 261C310 290.407 285.407 315 256 315Z" fill="white"/>
  <circle cx="256" cy="261" r="27" fill="white"/>
</svg> 